<?xml version="1.0" encoding="UTF-8"?>
<svg width="301px" height="440px" viewBox="0 0 301 440" version="1.1" xmlns="http://www.w3.org/2000/svg" xmlns:xlink="http://www.w3.org/1999/xlink">
    <!-- Generator: Sketch 57.1 (83088) - https://sketch.com -->
    <title>logo-mark</title>
    <desc>Created with Sketch.</desc>
    <defs>
        <polygon id="path-1" points="0.48 0.928358209 300.368 0.928358209 300.368 439.52 0.48 439.52"></polygon>
    </defs>
    <g id="Page-1" stroke="none" stroke-width="1" fill="none" fill-rule="evenodd">
        <g id="logo-mark">
            <mask id="mask-2" fill="white">
                <use xlink:href="#path-1"></use>
            </mask>
            <g id="path-1"></g>
            <path d="M63.896,274.088 C76.24,248.08 87.936,224.28 106.224,186.136 C123.968,149.104 161.92,85.968 207.912,53.968 C214.032,49.704 221.576,45.536 227.648,45.536 C230.352,45.536 232.768,46.368 234.632,48.384 C246.4,61.096 234.496,120.784 200.152,159.728 C153.68,212.4 138.208,227.128 79.496,267.472 C72.256,272.44 62.08,277.32 63.896,274.088 Z M288.016,416.088 C279.384,416.792 262.632,418.336 232.528,412.584 C183.856,403.28 139.68,373.056 109.528,331.544 C105.824,326.448 89.76,304.992 90.168,302.928 C90.4,301.72 99.856,296.056 103.016,294.152 C160.12,259.808 224.928,193.472 242.616,171.328 C300.369086,99.032 296.72,29.744 266.296,6.496 C247.504,-7.856 212.672,2.024 141.536,78.128 C135.448,84.656 114.032,111.032 112.6,113 C111.168,114.968 112.616,106.12 112.76,103.368 C113.176,95.832 104.44,92.744 95.408,87.712 C82.336,80.416 81.352,91.288 79.608,101.592 C74.984,128.976 61.68,208.696 45.296,249.016 C40.52,260.776 35.656,272.384 31,283.464 C19.352,311.256 6.936,333.248 2.688,349.024 C-2.944,369.864 1.24,376.32 6.344,382.056 C28.32,406.752 30.672,393.136 34.856,381.768 C36.16,378.208 48.352,341.992 50.952,333.52 C52.512,328.432 55.712,318.048 56.272,318.736 C56.84,319.432 62.696,328.696 64.008,330.888 C110.48,408.744 167.624,429.744 236.344,439.08 C246.56,440.472 272.256,440.432 281.768,437.92 C290.88,435.52 295.128,431.64 299.032,423.096 C301.72,417.192 301.408,414.976 288.016,416.088 L288.016,416.088 Z" id="Fill-1" fill="#ffffff" fill-rule="nonzero" mask="url(#mask-2)"></path>
            <path d="M229.456,328.248 C222.832,337.96 219.424,351.656 226.392,360.568 C233.36,369.48 241.432,381.464 253.136,373.392 C264.84,365.304 276.544,351.656 269.296,340.784 C262.056,329.92 237.816,315.992 229.456,328.248" id="Fill-4" fill="#ffffff" fill-rule="nonzero" mask="url(#mask-2)"></path>
        </g>
    </g>
</svg>