<?xml version="1.0" encoding="UTF-8"?>
<svg width="22px" height="22px" viewBox="0 0 22 22" version="1.1" xmlns="http://www.w3.org/2000/svg" xmlns:xlink="http://www.w3.org/1999/xlink">
    <!-- Generator: Sketch 57.1 (83088) - https://sketch.com -->
    <title>quotes-white</title>
    <desc>Created with Sketch.</desc>
    <g id="Symbols" stroke="none" stroke-width="1" fill="none" fill-rule="evenodd">
        <g id="testimonial-with-photo" transform="translate(-236.000000, -14.000000)" fill="#FFFFFF" fill-rule="nonzero">
            <g id="testimonial">
                <g>
                    <g id="quote-element" transform="translate(222.000000, 0.000000)">
                        <path d="M35.512605,35.3865546 L35.512605,25.9747899 L31.6890756,25.9747899 L31.6890756,24.7983193 C31.6890756,24.0140056 31.7310924,23.2927171 31.8151261,22.6344538 C31.8991597,21.9761905 32.0812325,21.394958 32.3613445,20.8907563 C32.6414566,20.3865546 33.0336134,19.9453782 33.5378151,19.5672269 C34.0420168,19.1890756 34.7002801,18.8739496 35.512605,18.6218487 L35.512605,18.6218487 L35.512605,13.9579832 C32.8795518,14.6022409 30.7927171,15.8487395 29.2521008,17.697479 C27.7114846,19.5462185 26.9411765,21.9131653 26.9411765,24.7983193 L26.9411765,24.7983193 L26.9411765,35.3865546 L35.512605,35.3865546 Z M22.7394958,35.3865546 L22.7394958,25.9747899 L18.9159664,25.9747899 L18.9159664,24.7983193 C18.9159664,24.0140056 18.964986,23.2927171 19.0630252,22.6344538 C19.1610644,21.9761905 19.3431373,21.394958 19.6092437,20.8907563 C19.8753501,20.3865546 20.2605042,19.9453782 20.7647059,19.5672269 C21.2689076,19.1890756 21.9271709,18.8739496 22.7394958,18.6218487 L22.7394958,18.6218487 L22.7394958,13.9579832 C20.1064426,14.6022409 18.0196078,15.8487395 16.4789916,17.697479 C14.9383754,19.5462185 14.1680672,21.9131653 14.1680672,24.7983193 L14.1680672,24.7983193 L14.1680672,35.3865546 L22.7394958,35.3865546 Z" id="quotes-white"></path>
                    </g>
                </g>
            </g>
        </g>
    </g>
</svg>